HIERARCHY
ROOT Hips
{
	OFFSET -0.001795 -0.223333 0.028219
	CHANNELS 6 Xposition Yposition Zposition Zrotation Yrotation Xrotation 
	JOINT LeftUpLeg
	{
		OFFSET 0.069520 -0.091406 -0.006815
		CHANNELS 3 Zrotation Yrotation Xrotation
		JOINT LeftLeg
		{
			OFFSET 0.034277 -0.375199 -0.004496
			CHANNELS 3 Zrotation Yrotation Xrotation
			JOINT LeftFoot
			{
				OFFSET -0.013596 -0.397961 -0.043693
				CHANNELS 3 Zrotation Yrotation Xrotation
				JOINT LeftToe
				{
					OFFSET 0.026358 -0.055791 0.119288
					CHANNELS 3 Zrotation Yrotation Xrotation
					End Site
					{
						OFFSET 0.000000 0.000000 0.000000
					}
				}
			}
		}
	}
	JOINT RightUpLeg
	{
		OFFSET -0.067670 -0.090522 -0.004320
		CHANNELS 3 Zrotation Yrotation Xrotation
		JOINT RightLeg
		{
			OFFSET -0.038290 -0.382569 -0.008850
			CHANNELS 3 Zrotation Yrotation Xrotation
			JOINT RightFoot
			{
				OFFSET 0.015774 -0.398415 -0.042312
				CHANNELS 3 Zrotation Yrotation Xrotation
				JOINT RightToe
				{
					OFFSET -0.025372 -0.048144 0.123348
					CHANNELS 3 Zrotation Yrotation Xrotation
					End Site
					{
						OFFSET 0.000000 0.000000 0.000000
					}
				}
			}
		}
	}
	JOINT Spine
	{
		OFFSET -0.002533 0.108963 -0.026696
		CHANNELS 3 Zrotation Yrotation Xrotation
		JOINT Spine1
		{
			OFFSET 0.005487 0.135180 0.001092
			CHANNELS 3 Zrotation Yrotation Xrotation
			JOINT Spine2
			{
				OFFSET 0.001457 0.052922 0.025425
				CHANNELS 3 Zrotation Yrotation Xrotation
				JOINT Neck
				{
					OFFSET -0.002778 0.213870 -0.042857
					CHANNELS 3 Zrotation Yrotation Xrotation
					JOINT Head
					{
						OFFSET 0.005152 0.064970 0.051349
						CHANNELS 3 Zrotation Yrotation Xrotation
						End Site
						{
							OFFSET 0.000000 0.000000 0.000000
						}
					}
				}
				JOINT LeftShoulder
				{
					OFFSET 0.078845 0.121749 -0.034090
					CHANNELS 3 Zrotation Yrotation Xrotation
					JOINT LeftArm
					{
						OFFSET 0.090977 0.030469 -0.008868
						CHANNELS 3 Zrotation Yrotation Xrotation
						JOINT LeftForeArm
						{
							OFFSET 0.259612 -0.012772 -0.027456
							CHANNELS 3 Zrotation Yrotation Xrotation
							JOINT LeftHand
							{
								OFFSET 0.249234 0.008986 -0.001171
								CHANNELS 3 Zrotation Yrotation Xrotation
								End Site
								{
									OFFSET 0.000000 0.000000 0.000000
								}
							}
						}
					}
				}
				JOINT RightShoulder
				{
					OFFSET -0.081759 0.118833 -0.038615
					CHANNELS 3 Zrotation Yrotation Xrotation
					JOINT RightArm
					{
						OFFSET -0.096012 0.032551 -0.009143
						CHANNELS 3 Zrotation Yrotation Xrotation
						JOINT RightForeArm
						{
							OFFSET -0.253742 -0.013329 -0.021401
							CHANNELS 3 Zrotation Yrotation Xrotation
							JOINT RightHand
							{
								OFFSET -0.255298 0.007772 -0.005559
								CHANNELS 3 Zrotation Yrotation Xrotation
								End Site
								{
									OFFSET 0.000000 0.000000 0.000000
								}
							}
						}
					}
				}
			}
		}
	}
}
MOTION
Frames: 13
Frame Time: 0.050000
0.000000 0.952324 0.000000 -1.112720 1.852143 1.038198 6.734096 0.014607 4.889996 -1.621053 0.289961 -6.277509 2.420862 9.566254 15.429640 0.000000 0.000000 0.000000 -2.536383 -0.282399 4.192676 2.388528 -0.344532 -4.358636 -2.730584 -10.416068 14.474158 0.000000 0.000000 0.000000 -2.223882 0.014930 0.432372 3.589572 -0.303069 -22.689987 -1.355541 -1.169841 29.379215 0.584393 1.166982 -25.316990 0.000000 0.000000 0.000000 -25.180538 4.207492 -4.097059 -55.214594 -5.797083 -6.552378 -4.498191 -21.944104 2.080216 0.000000 0.000000 0.000000 15.699034 0.803249 -0.315429 62.698382 4.594566 -6.508407 1.562989 24.516866 1.549266 0.000000 0.000000 0.000000 
0.000016 0.951393 0.000389 -1.131750 1.445357 1.403609 7.293538 -0.014401 5.007976 -2.656857 0.350899 -6.989161 2.591623 9.777072 15.479168 0.000000 0.000000 0.000000 -2.690934 -0.203961 3.402351 2.493639 -0.337907 -3.746101 -2.476721 -9.941977 14.125412 0.000000 0.000000 0.000000 -2.161132 0.039526 -0.602194 3.633640 -0.366218 -21.836929 -1.768302 -0.849521 29.133536 0.440803 1.274934 -25.384449 0.000000 0.000000 0.000000 -25.681110 5.361896 -4.934911 -55.246383 -5.740215 -6.539140 -4.221668 -22.025184 2.042584 0.000000 0.000000 0.000000 15.643864 0.561933 -0.440281 64.051316 3.468279 -7.175909 0.451853 26.626684 1.500811 0.000000 0.000000 0.000000 
0.000158 0.951207 0.000500 -0.738693 1.212936 1.336815 6.939964 0.005062 4.608186 -2.852675 0.354953 -6.051625 2.735777 9.930196 15.315655 0.000000 0.000000 0.000000 -3.189711 -0.188519 3.579789 2.316375 -0.335247 -4.357061 -2.165899 -9.589593 14.944003 0.000000 0.000000 0.000000 -1.988775 0.042044 -0.776976 2.938408 -0.173522 -22.130302 -1.767953 -1.315389 29.559110 0.288770 1.216381 -24.727649 0.000000 0.000000 0.000000 -25.562143 4.953776 -4.421659 -55.192611 -5.880488 -6.568489 -2.846662 -21.447648 1.756860 0.000000 0.000000 0.000000 15.892055 1.304936 -0.204858 63.341332 3.133144 -7.359379 0.914969 25.969709 1.499504 0.000000 0.000000 0.000000 
0.000227 0.951176 0.000616 -0.674362 0.870253 1.200613 7.064352 0.013811 4.818542 -3.268734 0.380023 -6.026042 2.867084 10.099683 15.379267 0.000000 0.000000 0.000000 -3.395734 -0.181776 3.682483 2.474325 -0.343776 -4.335118 -1.998954 -9.323218 14.858258 0.000000 0.000000 0.000000 -2.096783 0.050561 -1.159313 3.212085 -0.260262 -21.997131 -2.021903 -1.421553 29.717522 0.378405 1.076701 -24.196983 0.000000 0.000000 0.000000 -26.169088 5.815604 -4.944279 -55.347198 -5.575708 -6.741332 -2.841891 -21.116365 1.748833 0.000000 0.000000 0.000000 15.535401 1.318337 -0.244896 63.683148 2.971095 -7.509304 1.412443 26.252024 1.615050 0.000000 0.000000 0.000000 
0.000200 0.951597 0.000571 -0.680592 0.982331 0.977886 6.924929 0.023849 4.839645 -2.979960 0.361378 -5.682327 2.815046 10.034985 15.365124 0.000000 0.000000 0.000000 -3.315860 -0.211402 3.984280 2.362804 -0.338685 -4.420680 -2.012203 -9.368134 15.013152 0.000000 0.000000 0.000000 -2.018425 0.040855 -0.810459 3.452779 -0.340631 -21.654777 -2.317016 -1.499727 29.211254 0.425388 1.020055 -23.620457 0.000000 0.000000 0.000000 -26.052929 5.668243 -4.851252 -55.566196 -5.551035 -6.718785 -2.798282 -20.689897 1.692233 0.000000 0.000000 0.000000 15.428031 1.310805 -0.259936 63.657366 2.897599 -7.486482 1.719820 25.630841 1.616528 0.000000 0.000000 0.000000 
0.000220 0.952027 0.000458 -0.679914 0.941206 0.898693 6.933120 0.025266 4.825904 -3.004969 0.362085 -5.510150 2.814935 10.049198 15.452037 0.000000 0.000000 0.000000 -3.395209 -0.219964 4.165290 2.488103 -0.350543 -4.614818 -1.942232 -9.289944 15.197669 0.000000 0.000000 0.000000 -2.161898 0.043128 -0.915158 3.572992 -0.360637 -21.889172 -2.270784 -1.722028 29.734158 0.578792 0.870800 -23.546067 0.000000 0.000000 0.000000 -26.125245 5.887018 -4.890012 -55.908785 -5.713543 -6.751662 -2.742694 -20.354513 1.671842 0.000000 0.000000 0.000000 14.956213 1.157207 -0.349217 63.907717 2.850144 -7.607184 2.113628 25.282762 1.664251 0.000000 0.000000 0.000000 
0.000212 0.952122 0.000270 -0.758232 0.866836 0.838378 7.035437 0.022334 4.848535 -3.046235 0.364614 -5.432577 2.851757 10.096670 15.453220 0.000000 0.000000 0.000000 -3.239749 -0.229397 4.171629 2.348400 -0.339562 -4.552880 -1.906029 -9.239771 15.211866 0.000000 0.000000 0.000000 -2.076732 0.040553 -0.823687 3.717985 -0.406249 -21.791298 -2.419778 -1.845432 29.727050 0.986361 0.584711 -23.487461 0.000000 0.000000 0.000000 -26.143902 5.818062 -4.785972 -55.890342 -5.532260 -6.849457 -2.837927 -20.273152 1.685640 0.000000 0.000000 0.000000 14.976708 1.265709 -0.332408 63.829923 2.595500 -7.745356 2.119254 25.191373 1.646652 0.000000 0.000000 0.000000 
0.000229 0.952012 0.000087 -0.921983 0.761706 0.821795 7.076030 0.019175 4.735767 -2.824488 0.350266 -5.189585 2.954128 10.214893 15.332767 0.000000 0.000000 0.000000 -3.139399 -0.228179 4.085793 2.465015 -0.344489 -4.418560 -1.852287 -9.153463 15.186703 0.000000 0.000000 0.000000 -1.863222 0.041650 -0.894515 3.692633 -0.404120 -21.745917 -2.381838 -1.846779 29.954177 1.294089 0.365616 -23.292577 0.000000 0.000000 0.000000 -26.127407 5.558250 -4.582156 -55.778919 -5.594521 -6.843808 -2.747904 -20.162068 1.661136 0.000000 0.000000 0.000000 14.924954 1.164661 -0.387671 63.893208 2.577225 -7.791355 2.118315 24.817815 1.616229 0.000000 0.000000 0.000000 
0.000239 0.951875 -0.000021 -0.910072 0.683822 0.840999 6.994316 0.024309 4.695179 -2.722127 0.344015 -5.139382 3.010787 10.282944 15.295252 0.000000 0.000000 0.000000 -3.183205 -0.216907 3.981315 2.503400 -0.344655 -4.299042 -1.832114 -9.111852 15.105502 0.000000 0.000000 0.000000 -1.733590 0.043178 -0.960801 3.720742 -0.411342 -21.773380 -2.443995 -1.753149 29.966215 1.514220 0.221118 -23.077551 0.000000 0.000000 0.000000 -25.970764 5.412810 -4.478168 -55.950776 -5.687788 -6.817486 -2.678289 -19.892341 1.622365 0.000000 0.000000 0.000000 14.931184 1.085944 -0.419670 63.806157 2.383000 -7.886907 2.200036 24.637717 1.618201 0.000000 0.000000 0.000000 
0.000229 0.951773 -0.000066 -0.947050 0.526864 0.837752 6.934566 0.031233 4.697178 -2.577581 0.335281 -5.086616 3.110408 10.407145 15.264454 0.000000 0.000000 0.000000 -3.232784 -0.210254 3.953263 2.632563 -0.352412 -4.283788 -1.754681 -8.988556 15.068129 0.000000 0.000000 0.000000 -1.552754 0.046050 -1.075508 3.580780 -0.380413 -21.724996 -2.403488 -1.688834 30.039702 1.600537 0.158074 -23.032056 0.000000 0.000000 0.000000 -25.887121 5.379462 -4.432748 -56.075969 -5.638904 -6.854479 -2.430431 -19.772853 1.571424 0.000000 0.000000 0.000000 14.922417 1.063069 -0.437607 63.855106 2.278584 -7.955411 2.103629 24.339490 1.574044 0.000000 0.000000 0.000000 
0.000178 0.951729 -0.000086 -0.912202 0.472059 0.895791 6.925889 0.033647 4.747611 -2.637110 0.341286 -5.269953 3.123134 10.430554 15.322660 0.000000 0.000000 0.000000 -3.344958 -0.192310 3.812495 2.761260 -0.358798 -4.159466 -1.742429 -8.960412 15.012671 0.000000 0.000000 0.000000 -1.459736 0.048560 -1.158118 3.568694 -0.373500 -21.804446 -2.452368 -1.606230 30.057020 1.685799 0.112398 -23.021935 0.000000 0.000000 0.000000 -25.786505 5.277409 -4.369336 -56.051542 -5.673226 -6.835727 -2.371388 -19.655276 1.547622 0.000000 0.000000 0.000000 14.923859 1.012946 -0.452204 63.873731 2.098003 -8.056586 2.079002 23.938226 1.539082 0.000000 0.000000 0.000000 
0.000096 0.951795 -0.000065 -0.932019 0.534751 0.961672 7.050842 0.024456 4.770990 -2.797758 0.352320 -5.457754 3.070904 10.371168 15.385385 0.000000 0.000000 0.000000 -3.373625 -0.188547 3.778971 2.714971 -0.355477 -4.122151 -1.502187 -8.502446 14.912059 0.000000 0.000000 0.000000 -1.330142 0.050086 -1.205539 3.537912 -0.358693 -21.898747 -2.435535 -1.681175 30.049210 1.644333 0.137244 -23.091958 0.000000 0.000000 0.000000 -25.684405 5.256937 -4.331928 -56.012521 -5.724719 -6.809813 -2.452049 -19.625847 1.558086 0.000000 0.000000 0.000000 14.727252 0.873709 -0.516001 63.961492 1.971867 -8.132991 1.958958 23.686208 1.494888 0.000000 0.000000 0.000000 
-0.000013 0.951825 -0.000036 -0.971462 0.549596 1.007413 7.065984 0.021934 4.757865 -2.734322 0.348970 -5.525525 3.066611 10.369778 15.404031 0.000000 0.000000 0.000000 -3.309237 -0.184280 3.671260 2.635996 -0.352539 -4.277925 -1.486919 -8.614771 15.513912 0.000000 0.000000 0.000000 -1.279813 0.053633 -1.319626 3.570522 -0.370742 -21.828527 -2.409996 -1.771584 30.050463 1.510097 0.212512 -23.166883 0.000000 0.000000 0.000000 -25.694373 5.328296 -4.355614 -55.778554 -5.790964 -6.761241 -2.602804 -19.641276 1.584270 0.000000 0.000000 0.000000 14.602497 0.877854 -0.520904 63.963658 1.957178 -8.146563 1.774613 23.491598 1.441294 0.000000 0.000000 0.000000 
